%TF.GenerationSoftware,KiCad,Pcbnew,9.0.6*%
%TF.CreationDate,2025-12-05T09:42:18+02:00*%
%TF.ProjectId,sig_scan_pcb,7369675f-7363-4616-9e5f-7063622e6b69,1*%
%TF.SameCoordinates,Original*%
%TF.FileFunction,Paste,Top*%
%TF.FilePolarity,Positive*%
%FSLAX46Y46*%
G04 Gerber Fmt 4.6, Leading zero omitted, Abs format (unit mm)*
G04 Created by KiCad (PCBNEW 9.0.6) date 2025-12-05 09:42:18*
%MOMM*%
%LPD*%
G01*
G04 APERTURE LIST*
G04 Aperture macros list*
%AMRoundRect*
0 Rectangle with rounded corners*
0 $1 Rounding radius*
0 $2 $3 $4 $5 $6 $7 $8 $9 X,Y pos of 4 corners*
0 Add a 4 corners polygon primitive as box body*
4,1,4,$2,$3,$4,$5,$6,$7,$8,$9,$2,$3,0*
0 Add four circle primitives for the rounded corners*
1,1,$1+$1,$2,$3*
1,1,$1+$1,$4,$5*
1,1,$1+$1,$6,$7*
1,1,$1+$1,$8,$9*
0 Add four rect primitives between the rounded corners*
20,1,$1+$1,$2,$3,$4,$5,0*
20,1,$1+$1,$4,$5,$6,$7,0*
20,1,$1+$1,$6,$7,$8,$9,0*
20,1,$1+$1,$8,$9,$2,$3,0*%
G04 Aperture macros list end*
%ADD10C,0.010000*%
%ADD11RoundRect,0.250000X-0.250000X-0.475000X0.250000X-0.475000X0.250000X0.475000X-0.250000X0.475000X0*%
%ADD12RoundRect,0.250000X-0.450000X0.262500X-0.450000X-0.262500X0.450000X-0.262500X0.450000X0.262500X0*%
%ADD13RoundRect,0.218750X-0.256250X0.218750X-0.256250X-0.218750X0.256250X-0.218750X0.256250X0.218750X0*%
%ADD14RoundRect,0.250000X0.250000X0.475000X-0.250000X0.475000X-0.250000X-0.475000X0.250000X-0.475000X0*%
%ADD15RoundRect,0.250000X0.262500X0.450000X-0.262500X0.450000X-0.262500X-0.450000X0.262500X-0.450000X0*%
%ADD16R,0.800000X0.300000*%
%ADD17R,0.300000X0.800000*%
%ADD18R,2.240000X2.240000*%
%ADD19RoundRect,0.250000X0.475000X-0.250000X0.475000X0.250000X-0.475000X0.250000X-0.475000X-0.250000X0*%
%ADD20R,1.250000X1.000000*%
%ADD21RoundRect,0.027500X-0.082500X0.392500X-0.082500X-0.392500X0.082500X-0.392500X0.082500X0.392500X0*%
%ADD22RoundRect,0.027500X-0.392500X0.082500X-0.392500X-0.082500X0.392500X-0.082500X0.392500X0.082500X0*%
%ADD23RoundRect,0.250000X-1.000000X-0.650000X1.000000X-0.650000X1.000000X0.650000X-1.000000X0.650000X0*%
%ADD24RoundRect,0.225000X-0.375000X0.225000X-0.375000X-0.225000X0.375000X-0.225000X0.375000X0.225000X0*%
%ADD25RoundRect,0.218750X-0.218750X-0.256250X0.218750X-0.256250X0.218750X0.256250X-0.218750X0.256250X0*%
%ADD26RoundRect,0.218750X0.218750X0.381250X-0.218750X0.381250X-0.218750X-0.381250X0.218750X-0.381250X0*%
%ADD27RoundRect,0.243750X-0.243750X-0.456250X0.243750X-0.456250X0.243750X0.456250X-0.243750X0.456250X0*%
%ADD28RoundRect,0.250000X-0.475000X0.250000X-0.475000X-0.250000X0.475000X-0.250000X0.475000X0.250000X0*%
%ADD29RoundRect,0.250000X-0.262500X-0.450000X0.262500X-0.450000X0.262500X0.450000X-0.262500X0.450000X0*%
%ADD30RoundRect,0.150000X-0.150000X0.825000X-0.150000X-0.825000X0.150000X-0.825000X0.150000X0.825000X0*%
%ADD31RoundRect,0.150000X0.587500X0.150000X-0.587500X0.150000X-0.587500X-0.150000X0.587500X-0.150000X0*%
%ADD32R,1.270000X0.610000*%
%ADD33R,1.020000X0.610000*%
%ADD34R,3.810000X1.650000*%
%ADD35R,2.550000X4.150000*%
%ADD36R,2.235200X3.429000*%
%ADD37RoundRect,0.218750X-0.381250X0.218750X-0.381250X-0.218750X0.381250X-0.218750X0.381250X0.218750X0*%
%ADD38RoundRect,0.250000X-0.312500X-0.625000X0.312500X-0.625000X0.312500X0.625000X-0.312500X0.625000X0*%
%ADD39RoundRect,0.250000X-0.285000X-0.285000X0.285000X-0.285000X0.285000X0.285000X-0.285000X0.285000X0*%
%ADD40RoundRect,0.050000X-0.350000X-0.050000X0.350000X-0.050000X0.350000X0.050000X-0.350000X0.050000X0*%
%ADD41RoundRect,0.050000X-0.050000X-0.350000X0.050000X-0.350000X0.050000X0.350000X-0.050000X0.350000X0*%
%ADD42R,5.400000X2.900000*%
%ADD43R,1.650000X0.760000*%
%ADD44RoundRect,0.250000X-0.650000X0.325000X-0.650000X-0.325000X0.650000X-0.325000X0.650000X0.325000X0*%
%ADD45R,1.240000X0.600000*%
%ADD46R,1.240000X0.300000*%
%ADD47RoundRect,0.218750X-0.218750X-0.381250X0.218750X-0.381250X0.218750X0.381250X-0.218750X0.381250X0*%
%ADD48RoundRect,0.250000X0.450000X-0.262500X0.450000X0.262500X-0.450000X0.262500X-0.450000X-0.262500X0*%
%ADD49RoundRect,0.218750X0.218750X0.256250X-0.218750X0.256250X-0.218750X-0.256250X0.218750X-0.256250X0*%
%ADD50R,0.812800X0.889000*%
%ADD51R,1.850000X0.900000*%
%ADD52R,1.850000X3.200000*%
%ADD53RoundRect,0.150000X-0.150000X0.587500X-0.150000X-0.587500X0.150000X-0.587500X0.150000X0.587500X0*%
%ADD54RoundRect,0.218750X0.381250X-0.218750X0.381250X0.218750X-0.381250X0.218750X-0.381250X-0.218750X0*%
%ADD55R,0.810000X0.260000*%
%ADD56R,0.260000X0.810000*%
%ADD57R,2.800000X1.100000*%
%ADD58R,2.600000X1.100000*%
%ADD59RoundRect,0.225000X-0.225000X-0.375000X0.225000X-0.375000X0.225000X0.375000X-0.225000X0.375000X0*%
%ADD60RoundRect,0.250000X-0.650000X1.000000X-0.650000X-1.000000X0.650000X-1.000000X0.650000X1.000000X0*%
%ADD61R,1.200000X1.400000*%
%ADD62R,3.500000X1.500000*%
%ADD63R,1.300000X1.050000*%
G04 APERTURE END LIST*
D10*
%TO.C,U5*%
X39700092Y-69467816D02*
X38340092Y-69467816D01*
X38340092Y-68107816D01*
X39700092Y-68107816D01*
X39700092Y-69467816D01*
G36*
X39700092Y-69467816D02*
G01*
X38340092Y-69467816D01*
X38340092Y-68107816D01*
X39700092Y-68107816D01*
X39700092Y-69467816D01*
G37*
X39700092Y-71357816D02*
X38340092Y-71357816D01*
X38340092Y-69997816D01*
X39700092Y-69997816D01*
X39700092Y-71357816D01*
G36*
X39700092Y-71357816D02*
G01*
X38340092Y-71357816D01*
X38340092Y-69997816D01*
X39700092Y-69997816D01*
X39700092Y-71357816D01*
G37*
X41590092Y-69467816D02*
X40230092Y-69467816D01*
X40230092Y-68107816D01*
X41590092Y-68107816D01*
X41590092Y-69467816D01*
G36*
X41590092Y-69467816D02*
G01*
X40230092Y-69467816D01*
X40230092Y-68107816D01*
X41590092Y-68107816D01*
X41590092Y-69467816D01*
G37*
X41590092Y-71357816D02*
X40230092Y-71357816D01*
X40230092Y-69997816D01*
X41590092Y-69997816D01*
X41590092Y-71357816D01*
G36*
X41590092Y-71357816D02*
G01*
X40230092Y-71357816D01*
X40230092Y-69997816D01*
X41590092Y-69997816D01*
X41590092Y-71357816D01*
G37*
%TO.C,U3*%
X39962500Y-39019450D02*
X38262500Y-39019450D01*
X38262500Y-37319450D01*
X39962500Y-37319450D01*
X39962500Y-39019450D01*
G36*
X39962500Y-39019450D02*
G01*
X38262500Y-39019450D01*
X38262500Y-37319450D01*
X39962500Y-37319450D01*
X39962500Y-39019450D01*
G37*
%TD*%
D11*
%TO.C,C41*%
X118695830Y-38572250D03*
X120595830Y-38572250D03*
%TD*%
D12*
%TO.C,R26*%
X132460230Y-45847349D03*
X132460230Y-47672349D03*
%TD*%
D13*
%TO.C,L6*%
X25300300Y-40232650D03*
X25300300Y-41807652D03*
%TD*%
D14*
%TO.C,C59*%
X38001090Y-78177016D03*
X36101092Y-78177016D03*
%TD*%
D15*
%TO.C,R14*%
X42209201Y-26262651D03*
X40384201Y-26262651D03*
%TD*%
D16*
%TO.C,IC2*%
X87755300Y-59090600D03*
X87755300Y-58590599D03*
X87755300Y-58090599D03*
X87755300Y-57590598D03*
D17*
X86805301Y-56640599D03*
X86305300Y-56640599D03*
X85805300Y-56640599D03*
X85305299Y-56640599D03*
D16*
X84355300Y-57590598D03*
X84355300Y-58090599D03*
X84355300Y-58590599D03*
X84355300Y-59090600D03*
D17*
X85305299Y-60040599D03*
X85805300Y-60040599D03*
X86305300Y-60040599D03*
X86805301Y-60040599D03*
D18*
X86055300Y-58340599D03*
%TD*%
D19*
%TO.C,C15*%
X66497200Y-28117800D03*
X66497200Y-26217802D03*
%TD*%
D20*
%TO.C,SW2*%
X95807700Y-29767850D03*
X103557700Y-29767850D03*
%TD*%
D21*
%TO.C,U5*%
X42165092Y-66797817D03*
X41765092Y-66797816D03*
X41365092Y-66797816D03*
X40965092Y-66797816D03*
X40565092Y-66797817D03*
X40165092Y-66797816D03*
X39765092Y-66797816D03*
X39365092Y-66797817D03*
X38965092Y-66797816D03*
X38565092Y-66797816D03*
X38165092Y-66797816D03*
X37765092Y-66797817D03*
D22*
X37030093Y-67532816D03*
X37030092Y-67932816D03*
X37030092Y-68332816D03*
X37030092Y-68732816D03*
X37030093Y-69132816D03*
X37030092Y-69532816D03*
X37030092Y-69932816D03*
X37030093Y-70332816D03*
X37030092Y-70732816D03*
X37030092Y-71132816D03*
X37030092Y-71532816D03*
X37030093Y-71932816D03*
D21*
X37765092Y-72667815D03*
X38165092Y-72667816D03*
X38565092Y-72667816D03*
X38965092Y-72667816D03*
X39365092Y-72667815D03*
X39765092Y-72667816D03*
X40165092Y-72667816D03*
X40565092Y-72667815D03*
X40965092Y-72667816D03*
X41365092Y-72667816D03*
X41765092Y-72667816D03*
X42165092Y-72667815D03*
D22*
X42900091Y-71932816D03*
X42900092Y-71532816D03*
X42900092Y-71132816D03*
X42900092Y-70732816D03*
X42900091Y-70332816D03*
X42900092Y-69932816D03*
X42900092Y-69532816D03*
X42900091Y-69132816D03*
X42900092Y-68732816D03*
X42900092Y-68332816D03*
X42900092Y-67932816D03*
X42900091Y-67532816D03*
%TD*%
D12*
%TO.C,R19*%
X118033800Y-51944900D03*
X118033800Y-53769900D03*
%TD*%
D11*
%TO.C,C48*%
X128374500Y-47852650D03*
X130274500Y-47852650D03*
%TD*%
D14*
%TO.C,C20*%
X31533499Y-42366250D03*
X29633501Y-42366250D03*
%TD*%
%TO.C,C4*%
X48983299Y-34416050D03*
X47083301Y-34416050D03*
%TD*%
D23*
%TO.C,D6*%
X75529298Y-59700199D03*
X79529300Y-59700199D03*
%TD*%
D24*
%TO.C,D7*%
X68021200Y-33656000D03*
X68021200Y-36956000D03*
%TD*%
D19*
%TO.C,C68*%
X133003600Y-76463048D03*
X133003600Y-74563050D03*
%TD*%
D12*
%TO.C,R34*%
X91187900Y-50405699D03*
X91187900Y-52230699D03*
%TD*%
D25*
%TO.C,L12*%
X113195400Y-43153650D03*
X114770400Y-43153650D03*
%TD*%
D26*
%TO.C,L4*%
X42695000Y-30758450D03*
X40570000Y-30758450D03*
%TD*%
D14*
%TO.C,C50*%
X63306999Y-73228200D03*
X61407001Y-73228200D03*
%TD*%
D27*
%TO.C,D5*%
X87481799Y-54112199D03*
X89356801Y-54112199D03*
%TD*%
D28*
%TO.C,C21*%
X38508300Y-44047652D03*
X38508300Y-45947650D03*
%TD*%
D29*
%TO.C,R16*%
X107533200Y-32815850D03*
X109358200Y-32815850D03*
%TD*%
%TO.C,R18*%
X40389800Y-47801850D03*
X42214800Y-47801850D03*
%TD*%
D14*
%TO.C,C13*%
X136623498Y-42620250D03*
X134723500Y-42620250D03*
%TD*%
D28*
%TO.C,C77*%
X75742800Y-50977800D03*
X75742800Y-52877798D03*
%TD*%
D30*
%TO.C,U6*%
X59182000Y-70157800D03*
X57912000Y-70157800D03*
X56642000Y-70157800D03*
X55372000Y-70157800D03*
X55372000Y-75107800D03*
X56642000Y-75107800D03*
X57912000Y-75107800D03*
X59182000Y-75107800D03*
%TD*%
D31*
%TO.C,Q1*%
X38091700Y-24494850D03*
X38091700Y-22594850D03*
X36216699Y-23544850D03*
%TD*%
D11*
%TO.C,C55*%
X47330994Y-67509016D03*
X49230992Y-67509016D03*
%TD*%
D19*
%TO.C,C45*%
X116750230Y-45059449D03*
X116750230Y-43159451D03*
%TD*%
D28*
%TO.C,C51*%
X63322200Y-75112801D03*
X63322200Y-77012799D03*
%TD*%
D11*
%TO.C,C37*%
X34952300Y-55574250D03*
X36852298Y-55574250D03*
%TD*%
D12*
%TO.C,R23*%
X141351000Y-46257200D03*
X141351000Y-48082200D03*
%TD*%
D15*
%TO.C,R32*%
X100380800Y-58582599D03*
X98555800Y-58582599D03*
%TD*%
D14*
%TO.C,C24*%
X109421099Y-30809250D03*
X107521101Y-30809250D03*
%TD*%
D11*
%TO.C,C40*%
X118695830Y-36591050D03*
X120595830Y-36591050D03*
%TD*%
D32*
%TO.C,Q3*%
X80174100Y-67389399D03*
X80174099Y-66119399D03*
X80174099Y-64849399D03*
X80174100Y-63579399D03*
D33*
X74709099Y-63579399D03*
X74709099Y-64849399D03*
X74709099Y-66119399D03*
X74709099Y-67389399D03*
D34*
X76814099Y-66614399D03*
X76814099Y-64354399D03*
%TD*%
D19*
%TO.C,C8*%
X72350901Y-30050700D03*
X72350901Y-28150702D03*
%TD*%
D12*
%TO.C,R27*%
X133275700Y-33935350D03*
X133275700Y-35760350D03*
%TD*%
%TO.C,R31*%
X96699700Y-58586399D03*
X96699700Y-60411399D03*
%TD*%
D13*
%TO.C,L8*%
X25300300Y-45286947D03*
X25300300Y-46861949D03*
%TD*%
D35*
%TO.C,L15*%
X105192800Y-64827800D03*
X101142800Y-64827800D03*
X101142800Y-76377800D03*
X105192800Y-76377800D03*
%TD*%
D28*
%TO.C,C35*%
X44883700Y-48020251D03*
X44883700Y-49920249D03*
%TD*%
%TO.C,C67*%
X85980900Y-50073599D03*
X85980900Y-51973597D03*
%TD*%
D14*
%TO.C,C78*%
X68615599Y-39573200D03*
X66715601Y-39573200D03*
%TD*%
D11*
%TO.C,C60*%
X47330994Y-71573016D03*
X49230992Y-71573016D03*
%TD*%
D36*
%TO.C,L16*%
X71031101Y-67437000D03*
X65722499Y-67437000D03*
%TD*%
D37*
%TO.C,L2*%
X36527100Y-32566150D03*
X36527100Y-34691150D03*
%TD*%
D38*
%TO.C,R42*%
X67473100Y-62255400D03*
X70398100Y-62255400D03*
%TD*%
D39*
%TO.C,U4*%
X121985729Y-43922550D03*
X121985729Y-45252550D03*
X121985729Y-46582550D03*
X123315729Y-43922550D03*
X123315729Y-45252550D03*
X123315729Y-46582550D03*
X124645729Y-43922550D03*
X124645729Y-45252550D03*
X124645729Y-46582550D03*
D40*
X119865729Y-42652550D03*
X119865729Y-43052550D03*
X119865729Y-43452550D03*
X119865729Y-43852550D03*
X119865729Y-44252550D03*
X119865729Y-44652550D03*
X119865729Y-45052550D03*
X119865729Y-45452550D03*
X119865729Y-45852550D03*
X119865729Y-46252550D03*
X119865729Y-46652550D03*
X119865729Y-47052550D03*
X119865729Y-47452550D03*
X119865729Y-47852550D03*
D41*
X120715729Y-48702550D03*
X121115729Y-48702550D03*
X121515729Y-48702550D03*
X121915729Y-48702550D03*
X122315729Y-48702550D03*
X122715729Y-48702550D03*
X123115729Y-48702550D03*
X123515729Y-48702550D03*
X123915729Y-48702550D03*
X124315729Y-48702550D03*
X124715729Y-48702550D03*
X125115729Y-48702550D03*
X125515729Y-48702550D03*
X125915729Y-48702550D03*
D40*
X126765729Y-47852550D03*
X126765729Y-47452550D03*
X126765729Y-47052550D03*
X126765729Y-46652550D03*
X126765729Y-46252550D03*
X126765729Y-45852550D03*
X126765729Y-45452550D03*
X126765729Y-45052550D03*
X126765729Y-44652550D03*
X126765729Y-44252550D03*
X126765729Y-43852550D03*
X126765729Y-43452550D03*
X126765729Y-43052550D03*
X126765729Y-42652550D03*
D41*
X125915729Y-41802550D03*
X125515729Y-41802550D03*
X125115729Y-41802550D03*
X124715729Y-41802550D03*
X124315729Y-41802550D03*
X123915729Y-41802550D03*
X123515729Y-41802550D03*
X123115729Y-41802550D03*
X122715729Y-41802550D03*
X122315729Y-41802550D03*
X121915729Y-41802550D03*
X121515729Y-41802550D03*
X121115729Y-41802550D03*
X120715729Y-41802550D03*
%TD*%
D19*
%TO.C,C28*%
X128918100Y-33638849D03*
X128918100Y-31738851D03*
%TD*%
D14*
%TO.C,C42*%
X111223229Y-36921251D03*
X109323231Y-36921251D03*
%TD*%
D29*
%TO.C,R2*%
X47044600Y-40385050D03*
X48869600Y-40385050D03*
%TD*%
%TO.C,R11*%
X50448200Y-40385050D03*
X52273200Y-40385050D03*
%TD*%
D42*
%TO.C,L7*%
X85293200Y-32843600D03*
X85293200Y-42543600D03*
%TD*%
D12*
%TO.C,R44*%
X79908400Y-47558999D03*
X79908400Y-49383999D03*
%TD*%
D43*
%TO.C,T1*%
X25361300Y-56818850D03*
X25361300Y-55548850D03*
X25361300Y-54278850D03*
X28541300Y-54278850D03*
X28541300Y-55548850D03*
X28541300Y-56818850D03*
%TD*%
D14*
%TO.C,C56*%
X38001090Y-76119616D03*
X36101092Y-76119616D03*
%TD*%
D44*
%TO.C,C16*%
X69926200Y-23164800D03*
X69926200Y-26114802D03*
%TD*%
D12*
%TO.C,R43*%
X79910301Y-51015299D03*
X79910301Y-52840299D03*
%TD*%
D28*
%TO.C,C61*%
X47173591Y-73579616D03*
X47173591Y-75479614D03*
%TD*%
D45*
%TO.C,J4*%
X144804900Y-39214848D03*
X144804900Y-38414848D03*
D46*
X144804900Y-37264848D03*
X144804900Y-36264848D03*
X144804900Y-35764848D03*
X144804900Y-34764848D03*
D45*
X144804900Y-33614848D03*
X144804900Y-32814848D03*
X144804900Y-32814848D03*
X144804900Y-33614848D03*
D46*
X144804900Y-34264848D03*
X144804900Y-35264848D03*
X144804900Y-36764848D03*
X144804900Y-37764848D03*
D45*
X144804900Y-38414848D03*
X144804900Y-39214848D03*
%TD*%
D47*
%TO.C,L1*%
X31222800Y-27862850D03*
X33347800Y-27862850D03*
%TD*%
D28*
%TO.C,C7*%
X66497200Y-22585602D03*
X66497200Y-24485600D03*
%TD*%
D14*
%TO.C,C46*%
X121942029Y-51602450D03*
X120042031Y-51602450D03*
%TD*%
D12*
%TO.C,R37*%
X91169099Y-53844898D03*
X91169099Y-55669898D03*
%TD*%
D48*
%TO.C,R30*%
X98001699Y-51426198D03*
X98001699Y-49601198D03*
%TD*%
%TO.C,R12*%
X42287300Y-24457350D03*
X42287300Y-22632350D03*
%TD*%
D14*
%TO.C,C53*%
X115903127Y-36561350D03*
X114003129Y-36561350D03*
%TD*%
D12*
%TO.C,R10*%
X31269300Y-44171550D03*
X31269300Y-45996550D03*
%TD*%
D14*
%TO.C,C64*%
X92351299Y-60004999D03*
X90451301Y-60004999D03*
%TD*%
D28*
%TO.C,C70*%
X82152099Y-58699400D03*
X82152099Y-60599398D03*
%TD*%
D49*
%TO.C,L5*%
X32158401Y-37921250D03*
X30583399Y-37921250D03*
%TD*%
D12*
%TO.C,R4*%
X138619899Y-38962650D03*
X138619899Y-40787650D03*
%TD*%
%TO.C,R41*%
X87758900Y-62167798D03*
X87758900Y-63992798D03*
%TD*%
D35*
%TO.C,L17*%
X63049800Y-55482800D03*
X67099800Y-55482800D03*
X67099800Y-43932800D03*
X63049800Y-43932800D03*
%TD*%
D28*
%TO.C,C11*%
X72325501Y-24213701D03*
X72325501Y-26113699D03*
%TD*%
D19*
%TO.C,C2*%
X44528100Y-32572049D03*
X44528100Y-30672051D03*
%TD*%
D20*
%TO.C,SW1*%
X95806430Y-36956050D03*
X103556430Y-36956050D03*
%TD*%
D12*
%TO.C,R39*%
X137083801Y-66194100D03*
X137083801Y-68019100D03*
%TD*%
D50*
%TO.C,U1*%
X35361299Y-29737251D03*
X33311301Y-29737251D03*
X34336300Y-31627250D03*
%TD*%
D28*
%TO.C,C52*%
X61163200Y-75112802D03*
X61163200Y-77012800D03*
%TD*%
D19*
%TO.C,C3*%
X38609900Y-32699049D03*
X38609900Y-30799051D03*
%TD*%
D48*
%TO.C,R40*%
X89155900Y-52230699D03*
X89155900Y-50405699D03*
%TD*%
D14*
%TO.C,C36*%
X34831092Y-67636016D03*
X32931094Y-67636016D03*
%TD*%
D48*
%TO.C,R35*%
X98027099Y-56736698D03*
X98027099Y-54911698D03*
%TD*%
D19*
%TO.C,C66*%
X135035600Y-76463048D03*
X135035600Y-74563050D03*
%TD*%
D11*
%TO.C,C23*%
X101628301Y-40258050D03*
X103528299Y-40258050D03*
%TD*%
D26*
%TO.C,L14*%
X115882330Y-28082050D03*
X113757330Y-28082050D03*
%TD*%
D28*
%TO.C,C10*%
X40667300Y-44032451D03*
X40667300Y-45932449D03*
%TD*%
D12*
%TO.C,R3*%
X141810100Y-38735950D03*
X141810100Y-40560950D03*
%TD*%
D51*
%TO.C,IC1*%
X75012901Y-23793499D03*
X75012901Y-26093500D03*
X75012901Y-28393501D03*
D52*
X81212901Y-26093500D03*
%TD*%
D51*
%TO.C,U2*%
X63806000Y-27674601D03*
X63806000Y-25374600D03*
X63806000Y-23074599D03*
D52*
X57606000Y-25374600D03*
%TD*%
D14*
%TO.C,C58*%
X112201999Y-28092400D03*
X110302001Y-28092400D03*
%TD*%
D48*
%TO.C,R22*%
X143332200Y-48082200D03*
X143332200Y-46257200D03*
%TD*%
D24*
%TO.C,D1*%
X138379200Y-52452000D03*
X138379200Y-55752000D03*
%TD*%
D28*
%TO.C,C76*%
X77825600Y-50967601D03*
X77825600Y-52867599D03*
%TD*%
D29*
%TO.C,R20*%
X27134892Y-70887216D03*
X28959892Y-70887216D03*
%TD*%
%TO.C,R28*%
X47431392Y-65400816D03*
X49256392Y-65400816D03*
%TD*%
D11*
%TO.C,C49*%
X126798430Y-39588250D03*
X128698430Y-39588250D03*
%TD*%
%TO.C,C34*%
X31231801Y-79019400D03*
X33131799Y-79019400D03*
%TD*%
D14*
%TO.C,C69*%
X87728499Y-65821599D03*
X85828501Y-65821599D03*
%TD*%
D53*
%TO.C,Q2*%
X135308400Y-70528200D03*
X133408400Y-70528200D03*
X134358400Y-72403201D03*
%TD*%
D11*
%TO.C,FB1*%
X37378601Y-58115200D03*
X39278599Y-58115200D03*
%TD*%
D12*
%TO.C,R9*%
X44883700Y-44577950D03*
X44883700Y-46402950D03*
%TD*%
D29*
%TO.C,R24*%
X31269300Y-75311000D03*
X33094300Y-75311000D03*
%TD*%
D11*
%TO.C,C17*%
X138609700Y-42671051D03*
X140509698Y-42671051D03*
%TD*%
D26*
%TO.C,L3*%
X42690700Y-32536450D03*
X40565700Y-32536450D03*
%TD*%
D11*
%TO.C,C1*%
X29804901Y-31622050D03*
X31704899Y-31622050D03*
%TD*%
D54*
%TO.C,L13*%
X115908129Y-34732550D03*
X115908129Y-32607550D03*
%TD*%
D12*
%TO.C,R21*%
X116103400Y-51944900D03*
X116103400Y-53769900D03*
%TD*%
%TO.C,R7*%
X33225100Y-44171550D03*
X33225100Y-45996550D03*
%TD*%
D15*
%TO.C,R1*%
X48918500Y-36422650D03*
X47093500Y-36422650D03*
%TD*%
D55*
%TO.C,U3*%
X37162500Y-36919450D03*
X37162500Y-37419450D03*
X37162500Y-37919450D03*
X37162500Y-38419450D03*
X37162500Y-38919450D03*
X37162500Y-39419450D03*
D56*
X37862500Y-40119450D03*
X38362500Y-40119450D03*
X38862500Y-40119450D03*
X39362500Y-40119450D03*
X39862500Y-40119450D03*
X40362500Y-40119450D03*
D55*
X41062500Y-39419450D03*
X41062500Y-38919450D03*
X41062500Y-38419450D03*
X41062500Y-37919450D03*
X41062500Y-37419450D03*
X41062500Y-36919450D03*
D56*
X40362500Y-36219450D03*
X39862500Y-36219450D03*
X39362500Y-36219450D03*
X38862500Y-36219450D03*
X38362500Y-36219450D03*
X37862500Y-36219450D03*
%TD*%
D11*
%TO.C,C47*%
X128373230Y-45785849D03*
X130273230Y-45785849D03*
%TD*%
D48*
%TO.C,R6*%
X141937100Y-33271150D03*
X141937100Y-31446150D03*
%TD*%
D12*
%TO.C,R5*%
X136635099Y-38962650D03*
X136635099Y-40787650D03*
%TD*%
D14*
%TO.C,C75*%
X69631599Y-59791600D03*
X67731601Y-59791600D03*
%TD*%
D11*
%TO.C,C9*%
X47057900Y-38403850D03*
X48957900Y-38403850D03*
%TD*%
D14*
%TO.C,C19*%
X25285099Y-43560151D03*
X23385101Y-43560151D03*
%TD*%
%TO.C,C25*%
X42224099Y-50702051D03*
X40324101Y-50702051D03*
%TD*%
D15*
%TO.C,R36*%
X92284799Y-62047198D03*
X90459799Y-62047198D03*
%TD*%
D11*
%TO.C,C57*%
X47341193Y-69541016D03*
X49241191Y-69541016D03*
%TD*%
D28*
%TO.C,C29*%
X30817892Y-66914617D03*
X30817892Y-68814615D03*
%TD*%
D57*
%TO.C,U7*%
X129881300Y-78540450D03*
D58*
X129981300Y-76540450D03*
X129981300Y-74540450D03*
X129981300Y-72540450D03*
X129981300Y-70540450D03*
X129981300Y-68540450D03*
X129981300Y-66540450D03*
X129981300Y-64540450D03*
X114581300Y-64540450D03*
X114581300Y-66540450D03*
X114581300Y-68540450D03*
X114581300Y-70540450D03*
X114581300Y-72540450D03*
X114581300Y-74540450D03*
X114581300Y-76540450D03*
X114581300Y-78540450D03*
%TD*%
D19*
%TO.C,C14*%
X28754700Y-37906049D03*
X28754700Y-36006051D03*
%TD*%
D59*
%TO.C,D2*%
X145697300Y-46608050D03*
X148997300Y-46608050D03*
%TD*%
D28*
%TO.C,C62*%
X49230992Y-73579616D03*
X49230992Y-75479614D03*
%TD*%
D12*
%TO.C,R8*%
X47042700Y-44577950D03*
X47042700Y-46402950D03*
%TD*%
D14*
%TO.C,C44*%
X113763230Y-40985250D03*
X111863232Y-40985250D03*
%TD*%
D28*
%TO.C,C6*%
X50852700Y-34558251D03*
X50852700Y-36458249D03*
%TD*%
D14*
%TO.C,C74*%
X75683798Y-69472199D03*
X73783800Y-69472199D03*
%TD*%
D15*
%TO.C,R13*%
X76528300Y-34345800D03*
X74703300Y-34345800D03*
%TD*%
D19*
%TO.C,C71*%
X80805899Y-56916398D03*
X80805899Y-55016400D03*
%TD*%
D29*
%TO.C,R15*%
X107533200Y-34797050D03*
X109358200Y-34797050D03*
%TD*%
D47*
%TO.C,L11*%
X31195500Y-77139800D03*
X33320500Y-77139800D03*
%TD*%
D29*
%TO.C,R33*%
X93172900Y-54061399D03*
X94997900Y-54061399D03*
%TD*%
D14*
%TO.C,C43*%
X112137629Y-38927850D03*
X110237631Y-38927850D03*
%TD*%
D29*
%TO.C,R17*%
X27162192Y-68880616D03*
X28987192Y-68880616D03*
%TD*%
D60*
%TO.C,D3*%
X92356300Y-65116998D03*
X92356300Y-69117000D03*
%TD*%
D28*
%TO.C,C30*%
X30767092Y-70866816D03*
X30767092Y-72766814D03*
%TD*%
%TO.C,C32*%
X47068100Y-47994851D03*
X47068100Y-49894849D03*
%TD*%
D37*
%TO.C,L10*%
X122312830Y-36392150D03*
X122312830Y-38517150D03*
%TD*%
D19*
%TO.C,C72*%
X78765400Y-56906199D03*
X78765400Y-55006201D03*
%TD*%
D11*
%TO.C,C39*%
X34952300Y-53567650D03*
X36852298Y-53567650D03*
%TD*%
D27*
%TO.C,D4*%
X94365199Y-56702999D03*
X96240201Y-56702999D03*
%TD*%
D28*
%TO.C,C5*%
X46560100Y-30672051D03*
X46560100Y-32572049D03*
%TD*%
D29*
%TO.C,R25*%
X132312400Y-38861050D03*
X134137400Y-38861050D03*
%TD*%
D14*
%TO.C,C54*%
X115896829Y-30723650D03*
X113996831Y-30723650D03*
%TD*%
D15*
%TO.C,R38*%
X135284200Y-66134000D03*
X133459200Y-66134000D03*
%TD*%
D19*
%TO.C,C27*%
X121220630Y-33524248D03*
X121220630Y-31624250D03*
%TD*%
D14*
%TO.C,C65*%
X135300798Y-68148000D03*
X133400800Y-68148000D03*
%TD*%
D61*
%TO.C,Y1*%
X37873100Y-50697450D03*
X37873100Y-48497450D03*
X36273100Y-48497450D03*
X36273100Y-50697450D03*
%TD*%
D14*
%TO.C,C12*%
X33133699Y-35787650D03*
X31233701Y-35787650D03*
%TD*%
D12*
%TO.C,R29*%
X131294500Y-33909950D03*
X131294500Y-35734950D03*
%TD*%
D14*
%TO.C,C31*%
X35669292Y-64410215D03*
X33769294Y-64410215D03*
%TD*%
D28*
%TO.C,FB2*%
X39809491Y-76287217D03*
X39809491Y-78187215D03*
%TD*%
D62*
%TO.C,J1*%
X23753000Y-32638050D03*
X23753000Y-29938050D03*
X23753000Y-35338050D03*
%TD*%
D14*
%TO.C,C18*%
X31533499Y-40232650D03*
X29633501Y-40232650D03*
%TD*%
D63*
%TO.C,Y2*%
X123920529Y-33585350D03*
X126220529Y-33585350D03*
X126220529Y-31735350D03*
X123920529Y-31735350D03*
%TD*%
D14*
%TO.C,C22*%
X25310499Y-48614450D03*
X23410501Y-48614450D03*
%TD*%
D11*
%TO.C,C73*%
X73809200Y-71631199D03*
X75709198Y-71631199D03*
%TD*%
%TO.C,C33*%
X37665693Y-60117616D03*
X39565691Y-60117616D03*
%TD*%
D19*
%TO.C,C26*%
X40306100Y-24494849D03*
X40306100Y-22594851D03*
%TD*%
D11*
%TO.C,C38*%
X37665693Y-62149616D03*
X39565691Y-62149616D03*
%TD*%
D28*
%TO.C,C63*%
X94616900Y-58521600D03*
X94616900Y-60421598D03*
%TD*%
D13*
%TO.C,L9*%
X25325700Y-50316248D03*
X25325700Y-51891250D03*
%TD*%
M02*
