M48
; DRILL file {KiCad 9.0.6} date 2025-12-05T09:42:41+0200
; FORMAT={-:-/ absolute / metric / decimal}
; #@! TF.CreationDate,2025-12-05T09:42:41+02:00
; #@! TF.GenerationSoftware,Kicad,Pcbnew,9.0.6
; #@! TF.FileFunction,Plated,1,4,PTH
FMAT,2
METRIC
; #@! TA.AperFunction,Plated,PTH,ViaDrill
T1C0.300
; #@! TA.AperFunction,Plated,PTH,ComponentDrill
T2C0.300
; #@! TA.AperFunction,Plated,PTH,ViaDrill
T3C0.400
; #@! TA.AperFunction,Plated,PTH,ComponentDrill
T4C0.600
; #@! TA.AperFunction,Plated,PTH,ComponentDrill
T5C1.000
; #@! TA.AperFunction,Plated,PTH,ComponentDrill
T6C1.600
%
G90
G05
T1
X23.724Y-54.204
X23.724Y-56.794
X23.774Y-55.524
X23.978Y-42.062
X24.003Y-40.208
X24.003Y-45.034
X24.003Y-47.142
X24.054Y-50.089
X24.054Y-51.079
X24.054Y-52.324
X24.054Y-53.238
X24.105Y-41.123
X24.13Y-57.912
X24.155Y-46.076
X24.384Y-39.218
X24.765Y-38.43
X25.349Y-57.937
X25.4Y-37.643
X26.238Y-30.353
X26.314Y-33.807
X26.391Y-37.084
X26.467Y-42.57
X26.492Y-46.076
X26.568Y-41.427
X26.568Y-44.933
X26.594Y-40.284
X26.594Y-43.84
X26.594Y-47.219
X26.594Y-50.241
X26.594Y-51.283
X26.619Y-48.26
X26.619Y-49.225
X26.67Y-39.243
X27.178Y-33.147
X27.457Y-36.932
X27.508Y-38.887
X27.584Y-46.279
X27.965Y-57.988
X27.991Y-53.086
X28.031Y-47.321
X28.118Y-33.147
X28.143Y-67.564
X28.473Y-39.218
X28.753Y-46.076
X28.829Y-57.988
X28.831Y-47.294
X28.854Y-53.086
X28.99Y-67.545
X29.159Y-33.147
X29.21Y-30.302
X29.464Y-66.167
X29.616Y-45.237
X29.642Y-57.963
X29.667Y-53.137
X29.718Y-39.065
X29.718Y-43.866
X29.997Y-48.819
X30.074Y-36.754
X30.251Y-33.147
X30.302Y-52.553
X30.328Y-57.302
X30.48Y-56.515
X30.759Y-30.302
X30.988Y-51.918
X31.394Y-33.147
X31.775Y-48.692
X32.08Y-30.099
X32.487Y-33.147
X32.487Y-64.338
X32.715Y-47.803
X32.895Y-70.001
X32.92Y-66.318
X33.274Y-51.74
X33.604Y-33.147
X33.706Y-56.667
X34.112Y-52.222
X34.188Y-47.168
X34.239Y-43.002
X34.544Y-33.147
X34.622Y-79.272
X34.671Y-57.074
X34.722Y-44.196
X34.722Y-45.618
X34.874Y-69.698
X34.874Y-70.485
X34.925Y-41.808
X35.052Y-52.019
X35.128Y-33.731
X35.128Y-34.646
X35.408Y-35.712
X35.916Y-36.373
X36.22Y-41.046
X36.373Y-30.759
X36.668Y-63.811
X37.084Y-31.344
X37.873Y-47.243
X37.973Y-56.642
X38.049Y-54.559
X38.1Y-52.654
X38.305Y-37.362
X38.305Y-38.175
X38.305Y-38.937
X38.584Y-68.249
X38.584Y-69.722
X38.584Y-71.119
X38.862Y-56.515
X39.016Y-48.488
X39.091Y-52.705
X39.112Y-38.169
X39.118Y-37.362
X39.118Y-38.963
X39.268Y-54.661
X39.726Y-56.566
X39.905Y-37.362
X39.905Y-38.175
X39.931Y-38.963
X39.965Y-69.733
X39.98Y-52.984
X39.981Y-68.249
X39.981Y-71.094
X40.31Y-57.074
X40.665Y-63.246
X40.767Y-41.123
X40.767Y-53.569
X40.818Y-57.556
X40.818Y-58.191
X40.818Y-59.08
X40.818Y-59.919
X40.818Y-61.646
X40.818Y-62.484
X40.843Y-60.833
X41.328Y-68.249
X41.328Y-69.722
X41.328Y-71.119
X41.427Y-54.229
X41.58Y-41.656
X42.113Y-54.915
X42.215Y-42.291
X42.217Y-49.046
X42.723Y-55.728
X42.75Y-37.642
X42.951Y-42.951
X42.977Y-73.965
X43.028Y-56.642
X43.028Y-57.506
X43.028Y-58.395
X43.028Y-59.334
X43.028Y-60.3
X43.028Y-61.163
X43.028Y-62.052
X43.028Y-62.992
X43.078Y-66.599
X43.358Y-44.628
X43.358Y-46.355
X43.434Y-48.26
X43.434Y-49.276
X43.434Y-50.216
X43.51Y-45.517
X43.51Y-47.193
X43.536Y-43.713
X43.713Y-36.703
X43.739Y-65.735
X43.942Y-51.13
X43.942Y-52.121
X43.942Y-53.061
X43.942Y-53.975
X43.942Y-54.991
X43.942Y-56.058
X43.942Y-56.998
X43.942Y-57.912
X43.942Y-58.928
X43.942Y-59.995
X43.942Y-60.935
X43.942Y-61.874
X44.044Y-72.974
X44.425Y-38.633
X44.552Y-35.865
X44.577Y-64.897
X44.806Y-72.974
X45.034Y-39.268
X45.237Y-38.024
X45.237Y-64.237
X45.517Y-26.263
X45.618Y-35.509
X45.771Y-34.646
X45.771Y-41.326
X45.847Y-63.627
X45.898Y-39.421
X45.949Y-51.638
X45.949Y-52.578
X45.949Y-53.492
X45.949Y-54.508
X45.949Y-55.575
X45.949Y-56.515
X45.949Y-57.429
X45.949Y-58.445
X45.949Y-59.512
X45.949Y-60.452
X46.126Y-67.783
X46.261Y-72.211
X46.306Y-69.133
X46.482Y-62.992
X46.507Y-41.986
X47.244Y-42.774
X47.244Y-62.205
X47.854Y-61.392
X47.955Y-53.619
X47.955Y-54.559
X47.955Y-55.55
X47.955Y-56.49
X47.955Y-57.455
X47.955Y-58.369
X47.981Y-51.714
X47.981Y-52.654
X47.981Y-59.411
X47.981Y-60.325
X48.006Y-43.383
X48.031Y-33.122
X48.362Y-45.491
X48.463Y-50.673
X48.539Y-44.552
X48.539Y-47.396
X48.565Y-46.431
X48.59Y-48.463
X48.59Y-49.606
X48.92Y-32.817
X49.657Y-25.375
X49.809Y-33.071
X50.825Y-33.299
X50.927Y-37.77
X51.562Y-33.274
X51.714Y-37.719
X52.273Y-33.731
X52.299Y-34.544
X52.299Y-35.23
X52.375Y-36.982
X52.4Y-35.992
X53.492Y-71.755
X53.492Y-72.441
X53.492Y-74.244
X53.492Y-76.657
X53.492Y-77.622
X53.492Y-80.137
X53.518Y-32.842
X53.518Y-33.655
X53.518Y-34.544
X53.518Y-35.56
X53.518Y-36.5
X53.518Y-37.465
X53.518Y-38.405
X53.518Y-39.268
X53.518Y-40.183
X53.518Y-41.123
X53.518Y-41.986
X53.518Y-42.824
X53.518Y-43.764
X53.518Y-44.704
X53.518Y-45.644
X53.518Y-46.507
X53.518Y-47.422
X53.518Y-48.362
X53.518Y-49.225
X53.518Y-50.063
X53.518Y-51.003
X53.518Y-51.867
X53.518Y-52.781
X53.518Y-53.721
X53.518Y-54.635
X53.518Y-55.575
X53.518Y-56.439
X53.518Y-57.353
X53.518Y-58.293
X53.518Y-59.157
X53.518Y-59.995
X53.518Y-60.935
X53.518Y-61.798
X53.518Y-62.713
X53.518Y-63.652
X53.518Y-64.516
X53.518Y-65.38
X53.518Y-66.319
X53.518Y-67.183
X53.518Y-68.097
X53.518Y-69.037
X53.518Y-69.901
X53.518Y-73.33
X53.543Y-21.754
X53.543Y-23.698
X53.543Y-24.79
X53.543Y-25.857
X53.543Y-28.931
X53.543Y-30.378
X53.569Y-26.797
X55.372Y-73.406
X56.642Y-73.381
X71.704Y-56.058
X73.0Y-62.128
X81.788Y-69.444
X82.423Y-61.849
X83.617Y-64.11
X83.972Y-66.218
X85.217Y-53.823
X85.344Y-67.589
X88.468Y-21.768
X88.468Y-22.758
X88.468Y-23.647
X88.468Y-24.74
X88.468Y-25.806
X89.103Y-56.464
X89.205Y-64.008
X89.23Y-26.67
X90.068Y-51.257
X90.221Y-26.67
X91.288Y-26.67
X92.532Y-26.67
X92.812Y-56.337
X93.701Y-26.67
X94.742Y-50.444
X94.793Y-26.67
X94.945Y-62.332
X95.936Y-26.67
X97.18Y-26.67
X97.434Y-53.645
X98.349Y-26.67
X99.466Y-26.67
X100.457Y-26.67
X101.6Y-26.67
X102.845Y-26.67
X104.013Y-26.67
X105.131Y-26.67
X106.21Y-32.816
X106.274Y-26.67
X107.518Y-26.67
X107.531Y-36.194
X108.687Y-26.67
X109.08Y-51.333
X109.22Y-28.016
X109.296Y-29.235
X109.779Y-26.67
X109.83Y-51.333
X110.211Y-29.388
X110.922Y-26.67
X111.201Y-29.413
X111.303Y-51.943
X111.303Y-52.857
X112.166Y-26.67
X112.166Y-29.439
X112.319Y-67.412
X112.319Y-68.936
X112.319Y-70.739
X112.319Y-72.212
X112.319Y-73.635
X112.319Y-75.26
X112.319Y-76.733
X112.319Y-78.156
X112.319Y-79.527
X112.344Y-64.516
X112.344Y-65.913
X112.725Y-53.924
X112.776Y-30.15
X112.776Y-31.191
X113.132Y-63.17
X113.233Y-29.388
X113.309Y-32.106
X113.335Y-26.67
X114.198Y-29.362
X114.249Y-46.685
X114.325Y-34.163
X114.325Y-34.976
X114.351Y-32.156
X114.351Y-33.223
X114.402Y-26.67
X114.402Y-38.075
X114.757Y-39.014
X115.031Y-47.147
X115.113Y-39.98
X115.773Y-40.945
X115.988Y-49.604
X116.0Y-48.105
X116.002Y-50.368
X116.003Y-47.355
X116.007Y-48.855
X116.51Y-41.631
X116.561Y-72.542
X116.561Y-74.549
X116.561Y-76.556
X116.586Y-70.51
X116.611Y-66.548
X116.688Y-68.529
X116.764Y-63.144
X117.399Y-37.592
X117.424Y-35.382
X117.424Y-36.576
X117.424Y-38.938
X117.45Y-29.54
X117.45Y-30.836
X117.45Y-32.182
X117.45Y-33.147
X117.45Y-34.366
X117.475Y-27.534
X117.475Y-28.473
X117.602Y-41.808
X117.856Y-39.802
X117.932Y-63.144
X117.983Y-43.626
X118.004Y-44.376
X118.567Y-42.113
X118.694Y-50.343
X119.405Y-49.987
X119.456Y-26.67
X119.634Y-40.157
X120.175Y-49.995
X120.599Y-26.67
X120.929Y-50.228
X121.361Y-63.119
X121.615Y-54.102
X121.844Y-26.67
X122.114Y-50.155
X122.123Y-44.069
X122.123Y-45.237
X122.123Y-46.355
X123.012Y-26.67
X123.266Y-52.807
X123.316Y-45.253
X123.317Y-44.069
X123.317Y-46.38
X123.715Y-51.543
X123.876Y-63.094
X124.13Y-26.67
X124.46Y-44.044
X124.46Y-45.237
X124.46Y-46.38
X124.714Y-52.273
X125.222Y-51.41
X125.273Y-26.67
X125.425Y-63.144
X126.517Y-26.67
X126.822Y-63.144
X127.686Y-26.67
X127.889Y-64.541
X127.889Y-66.523
X127.889Y-68.555
X127.889Y-70.536
X127.914Y-72.542
X128.27Y-63.144
X128.321Y-50.063
X128.778Y-26.67
X129.845Y-63.144
X129.87Y-53.594
X129.921Y-26.67
X130.124Y-41.504
X131.166Y-26.67
X131.445Y-63.144
X132.004Y-77.622
X132.055Y-73.381
X132.055Y-79.248
X132.08Y-67.259
X132.08Y-68.783
X132.08Y-70.587
X132.08Y-72.06
X132.105Y-64.364
X132.105Y-65.761
X132.334Y-26.67
X133.452Y-26.67
X134.236Y-23.038
X134.239Y-21.971
X134.239Y-24.003
X134.239Y-25.095
X134.239Y-26.111
X135.28Y-63.322
X135.435Y-36.219
X139.446Y-50.749
X142.189Y-49.962
T2
X85.522Y-57.833
X85.522Y-58.849
X86.589Y-57.833
X86.589Y-58.849
X118.003Y-26.61
T3
X27.129Y-72.211
X33.147Y-34.442
X34.282Y-23.58
X34.747Y-61.62
X34.825Y-66.293
X36.679Y-66.776
X38.311Y-33.502
X39.804Y-79.298
X40.312Y-49.351
X40.743Y-73.989
X42.014Y-44.043
X42.215Y-45.923
X44.528Y-33.373
X45.791Y-70.033
X48.87Y-62.79
X50.343Y-38.405
X51.689Y-78.715
X52.275Y-41.731
X54.838Y-22.632
X57.607Y-28.296
X66.497Y-29.54
X75.794Y-55.016
X81.815Y-47.559
X82.39Y-57.624
X83.22Y-58.547
X85.293Y-40.538
X88.875Y-42.545
X93.396Y-59.487
X101.575Y-58.725
X111.914Y-43.103
X113.741Y-38.938
X115.138Y-44.602
X118.034Y-54.788
X120.587Y-35.254
X121.933Y-52.933
X123.927Y-30.429
X127.66Y-41.021
X131.242Y-46.761
X133.452Y-64.948
X134.241Y-31.978
X141.351Y-44.298
X143.459Y-32.817
T5
X30.223Y-62.732
X32.209Y-50.469
X32.209Y-53.009
X32.209Y-55.549
X32.209Y-58.089
X75.641Y-37.516
X75.641Y-40.056
X100.897Y-50.643
X100.897Y-53.183
X100.897Y-55.723
X133.477Y-28.727
X135.275Y-46.8
X136.017Y-28.727
X137.815Y-46.8
X138.557Y-28.727
X141.097Y-28.727
X143.944Y-43.611
X146.484Y-43.611
X149.024Y-43.611
T6
X58.09Y-34.934
X63.17Y-34.934
X145.339Y-54.534
X145.339Y-59.614
X145.339Y-64.77
X145.339Y-69.85
T4
X144.855Y-31.695G85X145.955Y-31.695
G05
X144.855Y-40.335G85X145.955Y-40.335
G05
X149.205Y-31.695G85X150.005Y-31.695
G05
X149.205Y-40.335G85X150.005Y-40.335
G05
M30
